<?xml version="1.0" encoding="UTF-8"?><svg id="uuid-0a195ff4-e016-4db7-8a88-96e5a9ed81cf" xmlns="http://www.w3.org/2000/svg" viewBox="0 0 535 433"><path d="M267.5,0h0c11.874,0,21.5,9.626,21.5,21.5h0c0,11.874-9.626,21.5-21.5,21.5h0c-11.874,0-21.5-9.626-21.5-21.5h0c0-11.874,9.626-21.5,21.5-21.5Z" style="fill:#767324;"/><path d="M267.5,390h0c11.874,0,21.5,9.626,21.5,21.5h0c0,11.874-9.626,21.5-21.5,21.5h0c-11.874,0-21.5-9.626-21.5-21.5h0c0-11.874,9.626-21.5,21.5-21.5Z" style="fill:#767324;"/><path d="M51,216.5h0c0-11.874,9.626-21.5,21.5-21.5h0c11.874,0,21.5,9.626,21.5,21.5h0c0,11.874-9.626,21.5-21.5,21.5h0c-11.874,0-21.5-9.626-21.5-21.5Z" style="fill:#767324;"/><path d="M0,216.5h0c0-11.874,9.626-21.5,21.5-21.5h0c11.874,0,21.5,9.626,21.5,21.5h0c0,11.874-9.626,21.5-21.5,21.5h0c-11.874,0-21.5-9.626-21.5-21.5Z" style="fill:#767324;"/><path d="M441,216.5h0c0-11.874,9.626-21.5,21.5-21.5h0c11.874,0,21.5,9.626,21.5,21.5h0c0,11.874-9.626,21.5-21.5,21.5h0c-11.874,0-21.5-9.626-21.5-21.5Z" style="fill:#767324;"/><path d="M492,216.5h0c0-11.874,9.626-21.5,21.5-21.5h0c11.874,0,21.5,9.626,21.5,21.5h0c0,11.874-9.626,21.5-21.5,21.5h0c-11.874,0-21.5-9.626-21.5-21.5Z" style="fill:#767324;"/><path d="M114.411,369.588h0c-8.396-8.396-8.396-22.009,0-30.406h0c8.396-8.396,22.009-8.396,30.406,0h0c8.396,8.396,8.396,22.009,0,30.406h0c-8.396,8.396-22.009,8.396-30.406,0Z" style="fill:#767324;"/><path d="M390.183,93.817h0c-8.396-8.396-8.396-22.009,0-30.406h0c8.396-8.396,22.009-8.396,30.406,0h0c8.396,8.396,8.396,22.009,0,30.406h0c-8.396,8.396-22.009,8.396-30.406,0Z" style="fill:#767324;"/><path d="M420.588,369.589h0c-8.396,8.396-22.009,8.396-30.406,0h0c-8.396-8.396-8.396-22.009,0-30.406h0c8.396-8.396,22.009-8.396,30.406,0h0c8.396,8.396,8.396,22.009,0,30.406Z" style="fill:#767324;"/><path d="M144.817,93.817h0c-8.396,8.396-22.009,8.396-30.406,0h0c-8.396-8.396-8.396-22.009,0-30.406h0c8.396-8.396,22.009-8.396,30.406,0h0c8.396,8.396,8.396,22.009,0,30.406Z" style="fill:#767324;"/></svg>